<svg width="161" height="53" viewBox="0 0 161 53" fill="none" xmlns="http://www.w3.org/2000/svg">
<path d="M13.5128 27.9364C12.1582 27.5032 10.9309 27.2887 10.9309 26.4224C10.9309 25.4283 11.9407 25.1478 12.8027 25.1891C13.6647 25.2097 14.6335 25.6428 15.0604 26.4637L16.6325 25.1437C15.9224 23.9103 14.223 23.1966 12.4374 23.1966C10.1551 23.2173 8.34891 24.3434 8.34891 26.439C8.34891 28.6665 10.2413 29.3348 11.875 29.8751C13.168 30.2877 14.3256 30.5682 14.3256 31.4303C14.3256 32.2924 13.5087 32.6843 12.2814 32.6431C11.1607 32.5771 10.0237 32.0161 9.61321 31.0879L8 32.4946C8.77582 33.7692 10.5163 34.6355 12.581 34.6355C14.9906 34.6561 16.9691 33.596 16.9691 31.4344C16.9691 29.1656 15.1384 28.4726 13.5046 27.9322L13.5128 27.9364Z" fill="#202020"/>
<path d="M24.1229 32.1971C22.251 32.2177 20.8759 30.9018 20.8759 28.9094C20.8759 26.9169 22.251 25.6217 24.1229 25.6464C25.1983 25.6464 26.1014 26.0795 26.6843 26.8592L28.4494 25.3907C27.415 24.0294 25.9331 23.2291 23.9751 23.2085C20.5311 23.1879 18.2734 25.5639 18.2734 28.8722C18.2734 32.1806 20.5311 34.6432 23.9751 34.6432C25.9536 34.6432 27.4601 33.7357 28.5151 32.3291L26.7089 30.9224C26.1507 31.7433 25.2024 32.1971 24.127 32.1971H24.1229Z" fill="#202020"/>
<path d="M39.0285 25.8178C38.3184 24.3039 37.0294 23.2025 35.0057 23.2025C31.9066 23.2025 29.8008 25.5579 29.8008 28.8662C29.8008 32.1745 31.9107 34.6372 35.0057 34.6372C37.0294 34.6372 38.3184 33.5111 39.0285 31.9559V34.3774H41.7172V23.417H39.0285V25.8178ZM35.7364 32.1952C33.8851 32.1952 32.51 30.8999 32.51 28.9075C32.51 26.9151 33.8851 25.6445 35.7364 25.6445C37.5877 25.6445 39.008 26.8986 39.008 28.9075C39.008 30.9164 37.5877 32.1952 35.7364 32.1952Z" fill="#202020"/>
<path d="M46.6652 18.3568H43.9766V34.3992H46.6652V18.3568Z" fill="#202020"/>
<path d="M54.1342 23.2025C50.5835 23.2025 48.4531 25.5579 48.4531 28.8662C48.4531 32.1745 50.7354 34.6372 54.3929 34.6372C56.3057 34.6372 58.0298 33.9442 59.1052 32.7149L57.1472 31.2877C56.5028 31.9559 55.5135 32.3684 54.3929 32.3478C52.6072 32.3478 51.3594 31.2217 51.187 29.5799H59.7702C60.0083 25.8838 57.9189 23.2025 54.1342 23.2025ZM51.187 28.1732C51.3799 26.5314 52.48 25.4713 54.2656 25.4713C56.0512 25.4713 57.2129 26.5108 57.4058 28.132L51.187 28.1732Z" fill="#202020"/>
<path d="M72.3536 23.4183H69.2545L64.9074 27.3742V18.3568H62.2188V34.3992H64.9074V29.3419L69.5993 34.3992H72.7847L67.1241 28.3477L72.3536 23.4183Z" fill="#202020"/>
<path d="M74.6133 34.3977H77.302V23.3919H74.6133V34.3977Z" fill="#202020"/>
<path d="M83.5424 30.2693V25.6204H85.7385V23.4134H83.5424V20.431L80.8537 21.0786V23.4134H79.1953V25.6204H80.8537V30.6571C80.8537 34.118 82.6598 34.6337 85.9971 34.3738V32.2783C84.1909 32.4061 83.5465 31.9524 83.5465 30.2693H83.5424Z" fill="#202020"/>
<path d="M75.9624 21.6572C76.8693 21.6572 77.6045 20.9184 77.6045 20.007C77.6045 19.0956 76.8693 18.3568 75.9624 18.3568C75.0555 18.3568 74.3203 19.0956 74.3203 20.007C74.3203 20.9184 75.0555 21.6572 75.9624 21.6572Z" fill="#202020"/>
<line x1="94.4971" y1="10.5" x2="94.4971" y2="42.5" stroke="#CECECE"/>
<path d="M103.437 34.5V19.6H108.297C109.87 19.6 111.237 19.92 112.397 20.56C113.57 21.1867 114.477 22.06 115.117 23.18C115.757 24.2867 116.077 25.5733 116.077 27.04C116.077 28.4933 115.757 29.7867 115.117 30.92C114.477 32.04 113.57 32.92 112.397 33.56C111.237 34.1867 109.87 34.5 108.297 34.5H103.437ZM106.157 32.1H108.357C109.37 32.1 110.244 31.8933 110.977 31.48C111.724 31.0533 112.304 30.4667 112.717 29.72C113.13 28.96 113.337 28.0667 113.337 27.04C113.337 26 113.13 25.1067 112.717 24.36C112.304 23.6133 111.724 23.0333 110.977 22.62C110.244 22.2067 109.37 22 108.357 22H106.157V32.1ZM123.342 34.74C122.275 34.74 121.302 34.4933 120.422 34C119.555 33.5067 118.862 32.8333 118.342 31.98C117.835 31.1267 117.582 30.1533 117.582 29.06C117.582 27.9667 117.835 26.9933 118.342 26.14C118.862 25.2867 119.555 24.6133 120.422 24.12C121.288 23.6267 122.262 23.38 123.342 23.38C124.408 23.38 125.375 23.6267 126.242 24.12C127.108 24.6133 127.795 25.2867 128.302 26.14C128.822 26.98 129.082 27.9533 129.082 29.06C129.082 30.1533 128.822 31.1267 128.302 31.98C127.782 32.8333 127.088 33.5067 126.222 34C125.355 34.4933 124.395 34.74 123.342 34.74ZM123.342 32.34C123.928 32.34 124.442 32.2 124.882 31.92C125.335 31.64 125.688 31.2533 125.942 30.76C126.208 30.2533 126.342 29.6867 126.342 29.06C126.342 28.42 126.208 27.86 125.942 27.38C125.688 26.8867 125.335 26.5 124.882 26.22C124.442 25.9267 123.928 25.78 123.342 25.78C122.742 25.78 122.215 25.9267 121.762 26.22C121.308 26.5 120.948 26.8867 120.682 27.38C120.428 27.86 120.302 28.42 120.302 29.06C120.302 29.6867 120.428 30.2533 120.682 30.76C120.948 31.2533 121.308 31.64 121.762 31.92C122.215 32.2 122.742 32.34 123.342 32.34ZM136.309 34.74C135.229 34.74 134.255 34.4933 133.389 34C132.535 33.4933 131.862 32.8133 131.369 31.96C130.875 31.0933 130.629 30.12 130.629 29.04C130.629 27.96 130.875 26.9933 131.369 26.14C131.862 25.2867 132.535 24.6133 133.389 24.12C134.255 23.6267 135.229 23.38 136.309 23.38C137.082 23.38 137.802 23.52 138.469 23.8C139.135 24.0667 139.709 24.44 140.189 24.92C140.682 25.3867 141.035 25.9467 141.249 26.6L138.949 27.6C138.749 27.0533 138.409 26.6133 137.929 26.28C137.462 25.9467 136.922 25.78 136.309 25.78C135.735 25.78 135.222 25.92 134.769 26.2C134.329 26.48 133.982 26.8667 133.729 27.36C133.475 27.8533 133.349 28.42 133.349 29.06C133.349 29.7 133.475 30.2667 133.729 30.76C133.982 31.2533 134.329 31.64 134.769 31.92C135.222 32.2 135.735 32.34 136.309 32.34C136.935 32.34 137.482 32.1733 137.949 31.84C138.415 31.5067 138.749 31.06 138.949 30.5L141.249 31.54C141.035 32.1533 140.689 32.7067 140.209 33.2C139.729 33.68 139.155 34.06 138.489 34.34C137.822 34.6067 137.095 34.74 136.309 34.74ZM147.377 34.74C146.217 34.74 145.203 34.4667 144.337 33.92C143.483 33.36 142.897 32.6067 142.577 31.66L144.537 30.72C144.817 31.3333 145.203 31.8133 145.697 32.16C146.203 32.5067 146.763 32.68 147.377 32.68C147.857 32.68 148.237 32.5733 148.517 32.36C148.797 32.1467 148.937 31.8667 148.937 31.52C148.937 31.3067 148.877 31.1333 148.757 31C148.65 30.8533 148.497 30.7333 148.297 30.64C148.11 30.5333 147.903 30.4467 147.677 30.38L145.897 29.88C144.977 29.6133 144.277 29.2067 143.797 28.66C143.33 28.1133 143.097 27.4667 143.097 26.72C143.097 26.0533 143.263 25.4733 143.597 24.98C143.943 24.4733 144.417 24.08 145.017 23.8C145.63 23.52 146.33 23.38 147.117 23.38C148.143 23.38 149.05 23.6267 149.837 24.12C150.623 24.6133 151.183 25.3067 151.517 26.2L149.517 27.14C149.33 26.6467 149.017 26.2533 148.577 25.96C148.137 25.6667 147.643 25.52 147.097 25.52C146.657 25.52 146.31 25.62 146.057 25.82C145.803 26.02 145.677 26.28 145.677 26.6C145.677 26.8 145.73 26.9733 145.837 27.12C145.943 27.2667 146.09 27.3867 146.277 27.48C146.477 27.5733 146.703 27.66 146.957 27.74L148.697 28.26C149.59 28.5267 150.277 28.9267 150.757 29.46C151.25 29.9933 151.497 30.6467 151.497 31.42C151.497 32.0733 151.323 32.6533 150.977 33.16C150.63 33.6533 150.15 34.04 149.537 34.32C148.923 34.6 148.203 34.74 147.377 34.74Z" fill="#4F5EFF"/>
</svg>
